<svg width="99" height="56" viewBox="0 0 99 56" fill="none" xmlns="http://www.w3.org/2000/svg">
<circle cx="27.75" cy="27.75" r="27.75" fill="#2D3240"/>
<circle cx="71.25" cy="27.75" r="27.25" fill="#2D3240" stroke="#E1E3E9"/>
<g clip-path="url(#clip0_4_18)">
<path d="M31.5225 13.5C29.9911 13.6034 28.3521 14.5146 27.3375 15.7444C26.4494 16.8265 25.7048 18.4148 25.9875 20.0644C25.7344 19.9863 25.5044 19.9779 25.2281 19.8787C24.4751 19.6109 23.6144 19.3219 22.545 19.3219C20.4208 19.3219 18.2461 20.5854 16.875 22.6969C14.8795 25.7639 15.2803 31.1618 18.3094 35.775C18.843 36.585 19.4653 37.4688 20.2331 38.1712C21.0009 38.8737 21.929 39.4095 23.0175 39.42C23.9477 39.4305 24.5953 39.1205 25.1775 38.8631C25.7597 38.6058 26.3018 38.378 27.3206 38.3737C27.3269 38.3737 27.3312 38.3737 27.3375 38.3737C28.3521 38.3653 28.8773 38.5889 29.4469 38.8462C30.0164 39.1036 30.6576 39.4284 31.59 39.42C32.6995 39.4116 33.6424 38.8041 34.425 38.0531C35.2076 37.3022 35.8509 36.3804 36.3825 35.5725C37.144 34.4123 37.4498 33.7795 38.0362 32.4844C38.0974 32.3494 38.0995 32.1933 38.0405 32.0562C37.9835 31.9191 37.8717 31.8115 37.7325 31.7587C35.813 31.0331 34.7182 29.3351 34.56 27.54C34.4018 25.7449 35.1612 23.8971 37.0744 22.8487C37.2157 22.7728 37.3148 22.6399 37.3486 22.4838C37.3802 22.3277 37.3423 22.1632 37.2431 22.0387C35.8699 20.3323 33.9377 19.3219 32.0456 19.3219C30.839 19.3219 29.9531 19.6066 29.2275 19.8787C29.1073 19.9252 29.0187 19.9209 28.9069 19.9631C29.643 19.575 30.2927 19.0371 30.78 18.4106C31.6659 17.2737 32.3494 15.6558 32.0962 13.9556C32.054 13.6772 31.803 13.4789 31.5225 13.5ZM30.9487 14.7825C30.9129 15.873 30.5395 16.9404 29.9194 17.7356C29.2697 18.5709 28.177 19.1489 27.1181 19.3219C27.1371 18.2735 27.5505 17.1872 28.1812 16.4194C28.8436 15.6178 29.9405 15.0398 30.9487 14.7825ZM22.545 20.4019C23.4162 20.4019 24.1144 20.6276 24.8569 20.8912C25.5994 21.1549 26.3819 21.465 27.3037 21.465C28.2044 21.465 28.9174 21.1528 29.6156 20.8912C30.3138 20.6297 31.0099 20.4019 32.0456 20.4019C33.3977 20.4019 34.8595 21.1043 36.0112 22.3256C34.1676 23.6271 33.3049 25.6563 33.48 27.6244C33.6551 29.6135 34.8532 31.5014 36.8212 32.4844C36.3951 33.4125 36.1146 34.0263 35.4881 34.9819C34.9713 35.7687 34.3575 36.6293 33.6825 37.2769C33.0075 37.9244 32.2924 38.3337 31.5731 38.34C30.8791 38.3463 30.4847 38.1396 29.8856 37.8675C29.2865 37.5954 28.5124 37.2832 27.3206 37.2937C26.1309 37.3001 25.3462 37.5996 24.7387 37.8675C24.1312 38.1354 23.7326 38.3463 23.0344 38.34C22.2961 38.3337 21.6105 37.9751 20.9587 37.3781C20.3069 36.7812 19.7184 35.9669 19.2037 35.1844C16.3687 30.8644 16.1409 25.7892 17.7694 23.2875C18.9633 21.4502 20.8596 20.4019 22.545 20.4019Z" fill="#E1E3E9"/>
</g>
<g clip-path="url(#clip1_4_18)">
<path d="M60.9563 22.7316C60.4653 22.7316 60.0486 22.9028 59.7062 23.2453C59.3637 23.5878 59.1924 23.9988 59.1924 24.4784V31.8432C59.1924 32.3349 59.3636 32.7511 59.7062 33.0937C60.0486 33.4362 60.4653 33.6074 60.9563 33.6074C61.447 33.6074 61.8612 33.4362 62.1983 33.0937C62.5348 32.7512 62.7036 32.3349 62.7036 31.8432V24.4784C62.7036 23.9987 62.5323 23.5878 62.1898 23.2453C61.8472 22.9028 61.436 22.7316 60.9563 22.7316Z" fill="#E1E3E9"/>
<path d="M75.138 16.1203L76.3541 13.877C76.4339 13.7284 76.4055 13.6146 76.2686 13.5345C76.1201 13.4654 76.0059 13.5004 75.9261 13.637L74.6931 15.8982C73.6081 15.4185 72.4605 15.1782 71.2503 15.1782C70.0399 15.1782 68.8923 15.4186 67.8076 15.8982L66.5745 13.637C66.4944 13.5004 66.3802 13.4657 66.232 13.5345C66.0949 13.6149 66.0665 13.7284 66.1466 13.877L67.3627 16.1203C66.1296 16.7491 65.1475 17.6249 64.4167 18.7496C63.686 19.8748 63.3205 21.1045 63.3205 22.4408H79.163C79.163 21.1048 78.7974 19.8751 78.0667 18.7496C77.3359 17.6249 76.3595 16.7491 75.138 16.1203ZM68.1073 19.3832C67.9757 19.515 67.8187 19.5806 67.6361 19.5806C67.4532 19.5806 67.2993 19.515 67.1737 19.3832C67.0482 19.252 66.9854 19.0956 66.9854 18.9124C66.9854 18.7298 67.0482 18.573 67.1737 18.4415C67.2993 18.3103 67.4535 18.2447 67.6361 18.2447C67.8187 18.2447 67.9757 18.3103 68.1073 18.4415C68.2385 18.5733 68.3044 18.7298 68.3044 18.9124C68.304 19.0953 68.2381 19.252 68.1073 19.3832ZM75.3263 19.3832C75.2005 19.515 75.0462 19.5806 74.864 19.5806C74.681 19.5806 74.5239 19.515 74.3927 19.3832C74.2612 19.252 74.1956 19.0956 74.1956 18.9124C74.1956 18.7298 74.2612 18.573 74.3927 18.4415C74.5239 18.3103 74.681 18.2447 74.864 18.2447C75.0465 18.2447 75.2004 18.3103 75.3263 18.4415C75.4519 18.5733 75.5146 18.7298 75.5146 18.9124C75.5146 19.0953 75.4518 19.252 75.3263 19.3832Z" fill="#E1E3E9"/>
<path d="M63.3885 34.4637C63.3885 34.9894 63.5711 35.4345 63.9363 35.7997C64.3019 36.1649 64.7469 36.3475 65.2723 36.3475H66.5398L66.5571 40.2358C66.5571 40.7268 66.7284 41.1437 67.0709 41.4863C67.4133 41.8288 67.8246 42.0001 68.304 42.0001C68.7947 42.0001 69.2116 41.8288 69.5542 41.4863C69.8967 41.1437 70.0679 40.7268 70.0679 40.2358V36.3478H72.4314V40.2358C72.4314 40.7268 72.6026 41.1437 72.9452 41.4863C73.2877 41.8288 73.7042 42.0001 74.1953 42.0001C74.6861 42.0001 75.103 41.8288 75.4455 41.4863C75.7881 41.1437 75.9593 40.7268 75.9593 40.2358V36.3478H77.2439C77.7576 36.3478 78.1969 36.1652 78.5628 35.8C78.9279 35.4348 79.1106 34.9897 79.1106 34.464V23.0567H63.3885V34.4637Z" fill="#E1E3E9"/>
<path d="M81.5437 22.7316C81.0639 22.7316 80.653 22.9003 80.3105 23.2368C79.968 23.5739 79.7968 23.9881 79.7968 24.4784V31.8432C79.7968 32.3349 79.9679 32.7511 80.3105 33.0937C80.653 33.4362 81.0642 33.6074 81.5437 33.6074C82.0344 33.6074 82.4513 33.4362 82.7938 33.0937C83.1364 32.7511 83.3076 32.3349 83.3076 31.8432V24.4784C83.3076 23.988 83.1364 23.5739 82.7938 23.2368C82.4513 22.9003 82.0344 22.7316 81.5437 22.7316Z" fill="#E1E3E9"/>
</g>
<defs>
<clipPath id="clip0_4_18">
<rect width="27" height="27" fill="white" transform="translate(13.5 13.5)"/>
</clipPath>
<clipPath id="clip1_4_18">
<rect width="28.5" height="28.5" fill="white" transform="translate(57 13.5)"/>
</clipPath>
</defs>
</svg>
