<svg width="168" height="33" viewBox="0 0 168 33" fill="none" xmlns="http://www.w3.org/2000/svg">
<path d="M0.786667 32H17.56V24.8533H9.61333V0.746667H0.786667V32ZM35.3388 32H45.1254L36.2187 0.746667H25.2054L25.8454 2.90667L17.7121 32H25.5521L26.5654 27.0133H34.1388L35.3388 32ZM30.0054 9.92L32.8321 21.5733H27.6588L30.0054 9.92ZM54.6573 32V22.16L53.084 11.92L57.004 19.6533L63.3506 32H71.484V0.746667H62.9773V9.12L64.284 20.9867L59.5906 10.88L54.684 0.746667H44.8706L46.1773 3.25333V32H54.6573ZM85.6169 27.6267H83.9102V5.36H85.9102C87.1547 5.36 88.1147 6.12444 88.7902 7.65333C89.4658 9.18222 89.8035 11.3511 89.8035 14.16V16.8533C89.8035 20.6933 89.4391 23.4489 88.7102 25.12C87.9991 26.7911 86.968 27.6267 85.6169 27.6267ZM86.4435 32.1867C88.3991 32.1867 90.1413 31.8489 91.6702 31.1733C93.1991 30.4978 94.4258 29.6178 95.3502 28.5333C96.2747 27.4489 97.0391 26.16 97.6435 24.6667C98.248 23.1556 98.6569 21.6533 98.8702 20.16C99.1013 18.6667 99.2169 17.0933 99.2169 15.44C99.2169 10.5689 98.2302 6.86222 96.2569 4.32C94.3013 1.77778 91.0569 0.506668 86.5235 0.506668C85.7235 0.506668 84.6213 0.542223 83.2169 0.613334C81.8124 0.684444 80.5147 0.728889 79.3235 0.746667H75.0835V32H79.3235C80.7458 32 82.1235 32.0267 83.4569 32.08C84.808 32.1511 85.8035 32.1867 86.4435 32.1867ZM101.804 32H110.897V0.746667H101.804V32ZM123.017 32V22.16L121.443 11.92L125.363 19.6533L131.71 32H139.843V0.746667H131.337V9.12L132.643 20.9867L127.95 10.88L123.043 0.746667H113.23L114.537 3.25333V32H123.017ZM162.483 29.1733L162.803 32H167.55L167.576 13.6533H155.71V19.0933L159.23 19.8933V22.6133C159.23 23.5733 159.141 24.3644 158.963 24.9867C158.785 25.5911 158.51 26.0533 158.136 26.3733C157.763 26.6756 157.363 26.8889 156.936 27.0133C156.51 27.12 155.985 27.1733 155.363 27.1733C154.101 27.1733 153.256 26.24 152.83 24.3733C152.421 22.5067 152.216 19.6444 152.216 15.7867C152.216 13.9378 152.296 12.3733 152.456 11.0933C152.616 9.79556 152.821 8.77333 153.07 8.02667C153.336 7.26222 153.692 6.68444 154.136 6.29333C154.598 5.88445 155.061 5.61778 155.523 5.49333C155.985 5.36889 156.572 5.30667 157.283 5.30667C158.154 5.30667 158.785 5.41333 159.176 5.62667L160.696 9.17333H165.55L165.95 3.04C165.914 3.00444 165.861 2.95111 165.79 2.88C165.736 2.80889 165.585 2.67556 165.336 2.48C165.087 2.28445 164.812 2.10667 164.51 1.94667C164.225 1.76889 163.825 1.57333 163.31 1.36C162.812 1.12889 162.278 0.942223 161.71 0.800001C161.141 0.64 160.447 0.506667 159.63 0.400002C158.83 0.293335 157.985 0.240001 157.096 0.240001C155.123 0.240001 153.363 0.417779 151.816 0.773334C150.27 1.11111 148.954 1.62667 147.87 2.32C146.785 3.01333 145.87 3.83111 145.123 4.77333C144.376 5.69778 143.79 6.8 143.363 8.08C142.936 9.36 142.625 10.7022 142.43 12.1067C142.252 13.5111 142.163 15.0933 142.163 16.8533C142.163 19.2178 142.376 21.3244 142.803 23.1733C143.247 25.0222 143.941 26.6667 144.883 28.1067C145.825 29.5467 147.096 30.6489 148.696 31.4133C150.314 32.1778 152.225 32.56 154.43 32.56C157.541 32.56 160.225 31.4311 162.483 29.1733Z" fill="#2E3341"/>
</svg>
